<?xml version="1.0" standalone="no"?><!DOCTYPE svg PUBLIC "-//W3C//DTD SVG 1.1//EN" "http://www.w3.org/Graphics/SVG/1.1/DTD/svg11.dtd"><svg xmlns:xlink="http://www.w3.org/1999/xlink" version="1.1" class="highcharts-root" style="font-family:&quot;Unica One&quot;, sans-serif;font-size:12px;" xmlns="http://www.w3.org/2000/svg" width="1385" height="574"><desc>Created with Highcharts 7.1.3</desc><defs><clipPath id="highcharts-ol6x16h-10-"><rect x="0" y="0" width="1319" height="492" fill="none"></rect></clipPath><clipPath id="highcharts-ol6x16h-15-"><rect x="0" y="0" width="1319" height="492" fill="none"></rect></clipPath></defs><rect fill="#1a2e44" class="highcharts-background" x="0" y="0" width="1385" height="574" rx="0" ry="0"></rect><rect fill="none" class="highcharts-plot-background" x="56" y="45" width="1319" height="492"></rect><g class="highcharts-pane-group" data-z-index="0"></g><g class="highcharts-grid highcharts-xaxis-grid" data-z-index="1"><path fill="none" stroke="#1a2e44" stroke-width="1" data-z-index="1" class="highcharts-grid-line" d="M 276.5 45 L 276.5 537" opacity="1"></path><path fill="none" stroke="#1a2e44" stroke-width="1" data-z-index="1" class="highcharts-grid-line" d="M 715.5 45 L 715.5 537" opacity="1"></path><path fill="none" stroke="#1a2e44" stroke-width="1" data-z-index="1" class="highcharts-grid-line" d="M 1264.5 45 L 1264.5 537" opacity="1"></path></g><g class="highcharts-grid highcharts-yaxis-grid" data-z-index="1"><path fill="none" stroke="#1a2e44" stroke-width="1" data-z-index="1" class="highcharts-grid-line" d="M 56 537.5 L 1375 537.5" opacity="1"></path><path fill="none" stroke="#1a2e44" stroke-width="1" data-z-index="1" class="highcharts-grid-line" d="M 56 476.5 L 1375 476.5" opacity="1"></path><path fill="none" stroke="#1a2e44" stroke-width="1" data-z-index="1" class="highcharts-grid-line" d="M 56 414.5 L 1375 414.5" opacity="1"></path><path fill="none" stroke="#1a2e44" stroke-width="1" data-z-index="1" class="highcharts-grid-line" d="M 56 353.5 L 1375 353.5" opacity="1"></path><path fill="none" stroke="#1a2e44" stroke-width="1" data-z-index="1" class="highcharts-grid-line" d="M 56 291.5 L 1375 291.5" opacity="1"></path><path fill="none" stroke="#1a2e44" stroke-width="1" data-z-index="1" class="highcharts-grid-line" d="M 56 230.5 L 1375 230.5" opacity="1"></path><path fill="none" stroke="#1a2e44" stroke-width="1" data-z-index="1" class="highcharts-grid-line" d="M 56 168.5 L 1375 168.5" opacity="1"></path><path fill="none" stroke="#1a2e44" stroke-width="1" data-z-index="1" class="highcharts-grid-line" d="M 56 107.5 L 1375 107.5" opacity="1"></path><path fill="none" stroke="#1a2e44" stroke-width="1" data-z-index="1" class="highcharts-grid-line" d="M 56 44.5 L 1375 44.5" opacity="1"></path></g><rect fill="none" class="highcharts-plot-border" data-z-index="1" x="56" y="45" width="1319" height="492"></rect><g class="highcharts-axis highcharts-xaxis" data-z-index="2"><path fill="none" class="highcharts-tick" stroke="#1a2e44" stroke-width="1" d="M 276.5 537 L 276.5 547" opacity="1"></path><path fill="none" class="highcharts-tick" stroke="#1a2e44" stroke-width="1" d="M 715.5 537 L 715.5 547" opacity="1"></path><path fill="none" class="highcharts-tick" stroke="#1a2e44" stroke-width="1" d="M 1264.5 537 L 1264.5 547" opacity="1"></path><path fill="none" class="highcharts-axis-line" stroke="#707073" stroke-width="1" data-z-index="7" d="M 56 537.5 L 1375 537.5"></path></g><g class="highcharts-axis highcharts-yaxis" data-z-index="2"><path fill="none" class="highcharts-axis-line" data-z-index="7" d="M 56 45 L 56 537"></path></g><g class="highcharts-series-group" data-z-index="3"><g data-z-index="0.1" class="highcharts-series highcharts-series-0 highcharts-candlestick-series highcharts-color-0  highcharts-dense-data" transform="translate(56,45) scale(1 1)" clip-path="url(#highcharts-ol6x16h-10-)"><path fill="#32ea32" stroke="#E0E0E3" stroke-width="1" opacity="1" d="M 113.5 128.5 L 113.5 125.5 L 325.5 125.5 L 325.5 128.5 Z M 219.5 125.5 L 219.5 125.5 M 219.5 128.5 L 219.5 128.5" class="highcharts-point highcharts-color-0 highcharts-point-up"></path><path fill="#fe3232" stroke="#E0E0E3" stroke-width="1" opacity="1" d="M 553.5 128.5 L 553.5 128.5 L 765.5 128.5 L 765.5 128.5 Z M 659.5 128.5 L 659.5 47 M 659.5 128.5 L 659.5 434" class="highcharts-point highcharts-color-0 highcharts-point-down"></path></g><g data-z-index="0.1" class="highcharts-markers highcharts-series-0 highcharts-candlestick-series highcharts-color-0 " transform="translate(56,45) scale(1 1)" clip-path="none"></g><g data-z-index="0.1" class="highcharts-series highcharts-series-1 highcharts-sma-series highcharts-color-1 " transform="translate(56,45) scale(1 1)" clip-path="url(#highcharts-ol6x16h-15-)"><path fill="none" d="M 1099.1666666667 244.32842023798193" class="highcharts-graph" data-z-index="1" stroke="#32ea32" stroke-width="2" stroke-linejoin="round" stroke-linecap="round"></path></g><g data-z-index="0.1" class="highcharts-markers highcharts-series-1 highcharts-sma-series highcharts-color-1 " transform="translate(56,45) scale(1 1)" clip-path="none"></g></g><text x="693" text-anchor="middle" class="highcharts-title" data-z-index="4" style="color:#E0E0E3;font-size:20px;text-transform:uppercase;fill:#E0E0E3;" y="25"></text><text x="693" text-anchor="middle" class="highcharts-subtitle" data-z-index="4" style="color:#E0E0E3;text-transform:uppercase;fill:#E0E0E3;" y="24"></text><g class="highcharts-axis-labels highcharts-xaxis-labels" data-z-index="7"><text x="277.16163141877" style="color:#E0E0E3;cursor:default;font-size:11px;fill:#E0E0E3;" text-anchor="middle" transform="translate(0,0)" y="556" opacity="1"><tspan>18. Sep</tspan></text><text x="715.5" style="color:#E0E0E3;cursor:default;font-size:11px;fill:#E0E0E3;" text-anchor="middle" transform="translate(0,0)" y="556" opacity="1">11:00</text><text x="1265.0833333333" style="color:#E0E0E3;cursor:default;font-size:11px;fill:#E0E0E3;" text-anchor="middle" transform="translate(0,0)" y="556" opacity="1">11:15</text></g><g class="highcharts-axis-labels highcharts-yaxis-labels" data-z-index="7"><text x="41" style="color:#E0E0E3;cursor:default;font-size:11px;fill:#E0E0E3;" text-anchor="end" transform="translate(0,0)" y="541" opacity="1">12</text><text x="41" style="color:#E0E0E3;cursor:default;font-size:11px;fill:#E0E0E3;" text-anchor="end" transform="translate(0,0)" y="480" opacity="1">12.25</text><text x="41" style="color:#E0E0E3;cursor:default;font-size:11px;fill:#E0E0E3;" text-anchor="end" transform="translate(0,0)" y="418" opacity="1">12.5</text><text x="41" style="color:#E0E0E3;cursor:default;font-size:11px;fill:#E0E0E3;" text-anchor="end" transform="translate(0,0)" y="357" opacity="1">12.75</text><text x="41" style="color:#E0E0E3;cursor:default;font-size:11px;fill:#E0E0E3;" text-anchor="end" transform="translate(0,0)" y="295" opacity="1">13</text><text x="41" style="color:#E0E0E3;cursor:default;font-size:11px;fill:#E0E0E3;" text-anchor="end" transform="translate(0,0)" y="234" opacity="1">13.25</text><text x="41" style="color:#E0E0E3;cursor:default;font-size:11px;fill:#E0E0E3;" text-anchor="end" transform="translate(0,0)" y="172" opacity="1">13.5</text><text x="41" style="color:#E0E0E3;cursor:default;font-size:11px;fill:#E0E0E3;" text-anchor="end" transform="translate(0,0)" y="111" opacity="1">13.75</text><text x="41" style="color:#E0E0E3;cursor:default;font-size:11px;fill:#E0E0E3;" text-anchor="end" transform="translate(0,0)" y="49" opacity="1">14</text></g><g class="highcharts-range-selector-group" data-z-index="7" transform="translate(0,0)"><g class="highcharts-range-selector-buttons" transform="translate(0,10)"><text x="56" y="15" style="color:#666666;display:none;fill:#666666;">Zoom</text><g class="highcharts-button highcharts-button-normal" data-z-index="7" labelStyle="[object Object]" visibility="hidden" transform="translate(61,0)"><rect fill="#f7f7f7" class="highcharts-button-box" x="0" y="0" width="54" height="22" rx="2" ry="2"></rect><text x="10.2578125" data-z-index="1" style="font-weight:normal;color:#333333;cursor:pointer;fill:#333333;" y="14"><tspan>1 day</tspan></text></g></g></g><g class="highcharts-legend" data-z-index="7"><rect fill="none" class="highcharts-legend-box" rx="0" ry="0" x="0" y="0" width="8" height="8" visibility="hidden"></rect><g data-z-index="1"><g></g></g></g><text x="1375" class="highcharts-credits" text-anchor="end" data-z-index="8" style="cursor:pointer;color:#999999;font-size:9px;fill:#999999;" y="569">Highcharts.com</text></svg>